<svg width="16" height="16" viewBox="0 0 16 16" fill="none" xmlns="http://www.w3.org/2000/svg">
<path d="M4.68695 1.71848V2.58933C4.68695 2.89847 4.93879 3.14908 5.24945 3.14908C5.56011 3.14908 5.81195 2.89847 5.81195 2.58933V1.64093C6.33617 1.62499 6.93595 1.625 7.625 1.625H8.37382C9.06292 1.625 9.6627 1.62499 10.1869 1.64093V2.58933C10.1869 2.89847 10.4387 3.14908 10.7494 3.14908C11.06 3.14908 11.3119 2.89847 11.3119 2.58933V1.71848C11.9446 1.79778 12.4783 1.94908 12.9516 2.25404C13.4181 2.55452 13.8154 2.94984 14.1173 3.41402C14.4112 3.86582 14.563 4.3728 14.6453 4.96894C14.2935 4.94099 13.8497 4.9084 13.3318 4.87581C11.9641 4.78977 10.0768 4.70366 7.99942 4.70366C5.92207 4.70366 4.03479 4.78977 2.6671 4.87581C2.14916 4.9084 1.70536 4.94099 1.35352 4.96895C1.43576 4.37281 1.58764 3.86582 1.88155 3.41402C2.1835 2.94984 2.58076 2.55452 3.04721 2.25404C3.5206 1.94908 4.05428 1.79778 4.68695 1.71848Z" fill="#B6C99B"/>
<path fill-rule="evenodd" clip-rule="evenodd" d="M1.26814 6.09916C1.24999 6.63637 1.25 7.25468 1.25 7.96955V8.0306C1.24999 9.1544 1.24999 10.0395 1.32048 10.7461C1.3925 11.4681 1.54247 12.0639 1.88212 12.586C2.18407 13.0502 2.58133 13.4455 3.04779 13.746C3.57247 14.084 4.17121 14.2332 4.89671 14.3049C5.60678 14.3751 6.49628 14.3751 7.62555 14.3751H8.37448C9.50375 14.3751 10.3933 14.3751 11.1033 14.3049C11.8288 14.2332 12.4275 14.084 12.9522 13.746C13.4187 13.4455 13.8159 13.0502 14.1179 12.586C14.4575 12.0639 14.6075 11.4681 14.6795 10.7461C14.75 10.0395 14.75 9.15432 14.75 8.0306V7.96958C14.75 7.2547 14.75 6.63638 14.7318 6.09915C14.3631 6.06887 13.8633 6.03103 13.2614 5.99316C11.9103 5.90817 10.0477 5.82324 8 5.82324C5.95243 5.82324 4.0897 5.90817 2.73865 5.99316C2.13672 6.03103 1.63688 6.06888 1.26814 6.09916ZM5.93746 8.4011C5.93746 8.77895 5.62966 9.08525 5.24997 9.08525C4.87027 9.08525 4.56246 8.77895 4.56246 8.4011C4.56246 8.02325 4.87027 7.71698 5.24997 7.71698C5.62966 7.71698 5.93746 8.02325 5.93746 8.4011ZM5.93746 11.1376C5.93746 11.5154 5.62966 11.8217 5.24997 11.8217C4.87027 11.8217 4.56246 11.5154 4.56246 11.1376C4.56246 10.7598 4.87027 10.4535 5.24997 10.4535C5.62966 10.4535 5.93746 10.7598 5.93746 11.1376ZM10.75 9.08525C11.1297 9.08525 11.4375 8.77895 11.4375 8.4011C11.4375 8.02325 11.1297 7.71698 10.75 7.71698C10.3703 7.71698 10.0625 8.02325 10.0625 8.4011C10.0625 8.77895 10.3703 9.08525 10.75 9.08525ZM11.4375 11.1376C11.4375 11.5154 11.1297 11.8217 10.75 11.8217C10.3703 11.8217 10.0625 11.5154 10.0625 11.1376C10.0625 10.7598 10.3703 10.4535 10.75 10.4535C11.1297 10.4535 11.4375 10.7598 11.4375 11.1376ZM8 9.08525C8.37972 9.08525 8.68753 8.77895 8.68753 8.4011C8.68753 8.02325 8.37972 7.71698 8 7.71698C7.62033 7.71698 7.31253 8.02325 7.31253 8.4011C7.31253 8.77895 7.62033 9.08525 8 9.08525ZM8.68753 11.1376C8.68753 11.5154 8.37972 11.8217 8 11.8217C7.62033 11.8217 7.31253 11.5154 7.31253 11.1376C7.31253 10.7598 7.62033 10.4535 8 10.4535C8.37972 10.4535 8.68753 10.7598 8.68753 11.1376Z" fill="#B6C99B"/>
</svg>
