<svg width="11" height="10" viewBox="0 0 11 10" fill="none" xmlns="http://www.w3.org/2000/svg">
<g id="clock">
<path id="Vector" fill-rule="evenodd" clip-rule="evenodd" d="M5.75 2.125C5.9571 2.125 6.125 2.2929 6.125 2.5V4.76824L7.4177 5.4146C7.60295 5.5072 7.67805 5.73245 7.5854 5.9177C7.4928 6.10295 7.26755 6.17805 7.0823 6.0854L5.58229 5.3354C5.45525 5.2719 5.375 5.14205 5.375 5V2.5C5.375 2.2929 5.5429 2.125 5.75 2.125Z" fill="#474747" fill-opacity="0.7"/>
<path id="Vector_2" fill-rule="evenodd" clip-rule="evenodd" d="M5.75 9.25C8.0972 9.25 10 7.3472 10 5C10 2.65279 8.0972 0.75 5.75 0.75C3.40279 0.75 1.5 2.65279 1.5 5C1.5 7.3472 3.40279 9.25 5.75 9.25ZM5.75 10C8.5114 10 10.75 7.7614 10.75 5C10.75 2.23857 8.5114 0 5.75 0C2.98857 0 0.75 2.23857 0.75 5C0.75 7.7614 2.98857 10 5.75 10Z" fill="#474747" fill-opacity="0.7"/>
</g>
</svg>
