<svg width="11" height="12" viewBox="0 0 11 12" fill="none" xmlns="http://www.w3.org/2000/svg">
<g id="icon/clock">
<path id="Vector" fill-rule="evenodd" clip-rule="evenodd" d="M11 6C11 9.03754 8.53754 11.5 5.5 11.5C2.46243 11.5 0 9.03754 0 6C0 2.96243 2.46243 0.5 5.5 0.5C8.53754 0.5 11 2.96243 11 6ZM5.9125 3.25C5.9125 3.02218 5.72781 2.8375 5.5 2.8375C5.27218 2.8375 5.0875 3.02218 5.0875 3.25V6C5.0875 6.15626 5.17578 6.29909 5.31552 6.36894L6.96553 7.19394C7.16931 7.29586 7.41708 7.21324 7.51894 7.00947C7.62086 6.8057 7.53824 6.55792 7.33447 6.45606L5.9125 5.74506V3.25Z" fill="#B6C99B"/>
</g>
</svg>
