<svg width="18" height="18" viewBox="0 0 18 18" fill="none" xmlns="http://www.w3.org/2000/svg">
<g id="Social Icons" clip-path="url(#clip0_248_5632)">
<path id="Vector" fill-rule="evenodd" clip-rule="evenodd" d="M8.67035 0.676514C3.87587 0.676514 0 4.58096 0 9.41129C0 13.2724 2.4834 16.5408 5.92855 17.6976C6.35928 17.7846 6.51705 17.5096 6.51705 17.2784C6.51705 17.0759 6.50285 16.3818 6.50285 15.6586C4.09097 16.1793 3.58872 14.6173 3.58872 14.6173C3.20111 13.605 2.6268 13.3448 2.6268 13.3448C1.8374 12.8098 2.68431 12.8098 2.68431 12.8098C3.55997 12.8676 4.01945 13.7064 4.01945 13.7064C4.79448 15.0367 6.04337 14.6608 6.5458 14.4294C6.6175 13.8654 6.84733 13.4749 7.09136 13.2581C5.16771 13.0556 3.14379 12.3036 3.14379 8.94844C3.14379 7.99398 3.48809 7.21309 4.03365 6.60577C3.94757 6.3889 3.64604 5.49212 4.1199 4.29185C4.1199 4.29185 4.85198 4.06043 6.50268 5.18846C7.2094 4.99726 7.93823 4.89999 8.67035 4.89917C9.40244 4.89917 10.1487 5.00051 10.8379 5.18846C12.4887 4.06043 13.2208 4.29185 13.2208 4.29185C13.6947 5.49212 13.393 6.3889 13.3069 6.60577C13.8668 7.21309 14.1969 7.99398 14.1969 8.94844C14.1969 12.3036 12.173 13.041 10.235 13.2581C10.5509 13.5328 10.8235 14.0533 10.8235 14.8777C10.8235 16.049 10.8093 16.9891 10.8093 17.2782C10.8093 17.5096 10.9672 17.7846 11.3978 17.6978C14.8429 16.5406 17.3263 13.2724 17.3263 9.41129C17.3405 4.58096 13.4505 0.676514 8.67035 0.676514Z" fill="#474747"/>
</g>
<defs>
<clipPath id="clip0_248_5632">
<rect width="17.3264" height="17.3264" fill="white" transform="translate(0 0.676514)"/>
</clipPath>
</defs>
</svg>
