<svg width="16" height="15" viewBox="0 0 16 15" fill="none" xmlns="http://www.w3.org/2000/svg">
<path d="M8.00245 0C4.87127 0 3.95552 0.00323104 3.77751 0.0180015C3.13494 0.0714291 2.73509 0.17263 2.29948 0.389571C1.96378 0.556316 1.69902 0.749602 1.43772 1.02055C0.961849 1.51467 0.673442 2.12256 0.569038 2.84516C0.518279 3.19596 0.503512 3.26751 0.500513 5.05935C0.499359 5.65663 0.500513 6.4427 0.500513 7.49706C0.500513 10.6266 0.503974 11.5416 0.518971 11.7193C0.570884 12.3448 0.668943 12.7383 0.876596 13.1687C1.27344 13.9926 2.03138 14.6111 2.92429 14.8419C3.23346 14.9215 3.57493 14.9654 4.01331 14.9862C4.19905 14.9942 6.09215 15 7.98641 15C9.88067 15 11.7749 14.9977 11.9561 14.9885C12.4636 14.9646 12.7584 14.925 13.0843 14.8408C13.527 14.7272 13.9397 14.5183 14.2933 14.2287C14.647 13.9391 14.9332 13.5758 15.132 13.1641C15.3356 12.744 15.4389 12.3355 15.4856 11.7428C15.4957 11.6135 15.5 9.55292 15.5 7.4951C15.5 5.43692 15.4954 3.38013 15.4852 3.25089C15.4379 2.64853 15.3347 2.2435 15.1245 1.81538C14.952 1.46493 14.7605 1.20322 14.4825 0.935618C13.9864 0.461578 13.3796 0.173092 12.6564 0.0687751C12.3061 0.0181169 12.2363 0.00311565 10.4435 0H8.00245Z" fill="url(#paint0_radial_173_4230)"/>
<path d="M8.00245 0C4.87127 0 3.95552 0.00323104 3.77751 0.0180015C3.13494 0.0714291 2.73509 0.17263 2.29948 0.389571C1.96378 0.556316 1.69902 0.749602 1.43772 1.02055C0.961849 1.51467 0.673442 2.12256 0.569038 2.84516C0.518279 3.19596 0.503512 3.26751 0.500513 5.05935C0.499359 5.65663 0.500513 6.4427 0.500513 7.49706C0.500513 10.6266 0.503974 11.5416 0.518971 11.7193C0.570884 12.3448 0.668943 12.7383 0.876596 13.1687C1.27344 13.9926 2.03138 14.6111 2.92429 14.8419C3.23346 14.9215 3.57493 14.9654 4.01331 14.9862C4.19905 14.9942 6.09215 15 7.98641 15C9.88067 15 11.7749 14.9977 11.9561 14.9885C12.4636 14.9646 12.7584 14.925 13.0843 14.8408C13.527 14.7272 13.9397 14.5183 14.2933 14.2287C14.647 13.9391 14.9332 13.5758 15.132 13.1641C15.3356 12.744 15.4389 12.3355 15.4856 11.7428C15.4957 11.6135 15.5 9.55292 15.5 7.4951C15.5 5.43692 15.4954 3.38013 15.4852 3.25089C15.4379 2.64853 15.3347 2.2435 15.1245 1.81538C14.952 1.46493 14.7605 1.20322 14.4825 0.935618C13.9864 0.461578 13.3796 0.173092 12.6564 0.0687751C12.3061 0.0181169 12.2363 0.00311565 10.4435 0H8.00245Z" fill="url(#paint1_radial_173_4230)"/>
<path d="M8.0004 2C6.50668 2 6.31922 2.00653 5.73254 2.03323C5.14702 2.06004 4.74735 2.15274 4.39763 2.28875C4.03589 2.42923 3.72903 2.61715 3.42332 2.92297C3.11738 3.22868 2.92946 3.53553 2.78852 3.89716C2.65217 4.24698 2.55935 4.64676 2.533 5.23205C2.50688 5.81872 2.5 6.00629 2.5 7.5C2.5 8.99371 2.50665 9.18059 2.53323 9.76726C2.56016 10.3528 2.65286 10.7524 2.78875 11.1022C2.92935 11.4639 3.11727 11.7708 3.42309 12.0765C3.72869 12.3824 4.03555 12.5708 4.39706 12.7113C4.747 12.8473 5.14679 12.94 5.7322 12.9668C6.31887 12.9935 6.50622 13 7.99983 13C9.49367 13 9.68055 12.9935 10.2672 12.9668C10.8528 12.94 11.2529 12.8473 11.6028 12.7113C11.9645 12.5708 12.2709 12.3824 12.5764 12.0765C12.8824 11.7708 13.0703 11.4639 13.2112 11.1023C13.3465 10.7524 13.4393 10.3527 13.4668 9.76737C13.4931 9.18071 13.5 8.99371 13.5 7.5C13.5 6.00629 13.4931 5.81883 13.4668 5.23217C13.4393 4.64665 13.3465 4.24698 13.2112 3.89727C13.0703 3.53553 12.8824 3.22868 12.5764 2.92297C12.2705 2.61703 11.9646 2.42911 11.6025 2.28875C11.2519 2.15274 10.852 2.06004 10.2664 2.03323C9.67975 2.00653 9.49298 2 7.9988 2H8.0004ZM7.507 2.99115C7.65344 2.99092 7.81684 2.99115 8.0004 2.99115C9.46892 2.99115 9.64297 2.99642 10.2229 3.02277C10.7591 3.04729 11.0502 3.1369 11.2441 3.21218C11.5007 3.31186 11.6837 3.43103 11.8761 3.62353C12.0686 3.81603 12.1878 3.99936 12.2877 4.25603C12.363 4.44968 12.4527 4.74072 12.4771 5.27697C12.5035 5.85676 12.5092 6.03093 12.5092 7.49874C12.5092 8.96655 12.5035 9.14072 12.4771 9.72051C12.4526 10.2568 12.363 10.5478 12.2877 10.7414C12.188 10.9981 12.0686 11.1809 11.8761 11.3733C11.6836 11.5658 11.5008 11.6849 11.2441 11.7846C11.0504 11.8602 10.7591 11.9496 10.2229 11.9741C9.64309 12.0005 9.46892 12.0062 8.0004 12.0062C6.53177 12.0062 6.35772 12.0005 5.77792 11.9741C5.24166 11.9494 4.95062 11.8598 4.75663 11.7845C4.49996 11.6848 4.31662 11.5656 4.12412 11.3731C3.93162 11.1806 3.81245 10.9978 3.71253 10.741C3.63725 10.5473 3.54753 10.2563 3.52313 9.72005C3.49677 9.14026 3.4915 8.96609 3.4915 7.49736C3.4915 6.02864 3.49677 5.85539 3.52313 5.27559C3.54765 4.73934 3.63725 4.4483 3.71253 4.25443C3.81222 3.99776 3.93162 3.81443 4.12412 3.62193C4.31662 3.42943 4.49996 3.31026 4.75663 3.21034C4.9505 3.13472 5.24166 3.04534 5.77792 3.02071C6.2853 2.99779 6.48193 2.99092 7.507 2.98977V2.99115ZM10.9363 3.90437C10.8057 3.90437 10.6781 3.94309 10.5696 4.01562C10.461 4.08815 10.3764 4.19124 10.3265 4.31186C10.2765 4.43247 10.2635 4.56519 10.289 4.69322C10.3145 4.82125 10.3773 4.93885 10.4697 5.03115C10.562 5.12344 10.6796 5.18628 10.8077 5.21172C10.9357 5.23716 11.0684 5.22406 11.189 5.17407C11.3096 5.12408 11.4127 5.03945 11.4852 4.93088C11.5577 4.82232 11.5963 4.69469 11.5963 4.56415C11.5963 4.19977 11.3007 3.90415 10.9363 3.90415V3.90437ZM8.0004 4.67552C6.44056 4.67552 5.17589 5.94018 5.17589 7.5C5.17589 9.05982 6.44056 10.3239 8.0004 10.3239C9.56024 10.3239 10.8246 9.05982 10.8246 7.5C10.8246 5.94018 9.56013 4.67552 8.00029 4.67552H8.0004ZM8.0004 5.66667C9.01287 5.66667 9.83375 6.48743 9.83375 7.5C9.83375 8.51246 9.01287 9.33333 8.0004 9.33333C6.98782 9.33333 6.16705 8.51246 6.16705 7.5C6.16705 6.48743 6.98782 5.66667 8.0004 5.66667Z" fill="white"/>
<defs>
<radialGradient id="paint0_radial_173_4230" cx="0" cy="0" r="1" gradientUnits="userSpaceOnUse" gradientTransform="translate(4.48439 16.1553) rotate(-90) scale(14.8661 13.8266)">
<stop stop-color="#FFDD55"/>
<stop offset="0.1" stop-color="#FFDD55"/>
<stop offset="0.5" stop-color="#FF543E"/>
<stop offset="1" stop-color="#C837AB"/>
</radialGradient>
<radialGradient id="paint1_radial_173_4230" cx="0" cy="0" r="1" gradientUnits="userSpaceOnUse" gradientTransform="translate(-2.01258 1.08057) rotate(78.6806) scale(6.64521 27.3918)">
<stop stop-color="#3771C8"/>
<stop offset="0.128" stop-color="#3771C8"/>
<stop offset="1" stop-color="#6600FF" stop-opacity="0"/>
</radialGradient>
</defs>
</svg>
