<svg width="16" height="17" viewBox="0 0 16 17" fill="none" xmlns="http://www.w3.org/2000/svg">
<g id="Social Icons" clip-path="url(#clip0_248_5646)">
<path id="Vector" d="M7.86816 1.94677C9.95138 1.94677 10.1981 1.95591 11.0174 1.99245C11.7788 2.02596 12.1899 2.15387 12.464 2.26047C12.8265 2.40057 13.0884 2.57113 13.3595 2.84219C13.6336 3.1163 13.8011 3.37518 13.9412 3.73761C14.0478 4.01172 14.1757 4.42593 14.2092 5.1843C14.2458 6.00662 14.2549 6.25332 14.2549 8.3335C14.2549 10.4167 14.2458 10.6634 14.2092 11.4827C14.1757 12.2441 14.0478 12.6553 13.9412 12.9294C13.8011 13.2918 13.6305 13.5537 13.3595 13.8248C13.0854 14.0989 12.8265 14.2664 12.464 14.4065C12.1899 14.5131 11.7757 14.641 11.0174 14.6745C10.195 14.7111 9.94834 14.7202 7.86816 14.7202C5.78493 14.7202 5.53823 14.7111 4.71895 14.6745C3.95754 14.641 3.54638 14.5131 3.27227 14.4065C2.90984 14.2664 2.64791 14.0959 2.37685 13.8248C2.10274 13.5507 1.93523 13.2918 1.79513 12.9294C1.68853 12.6553 1.56061 12.2411 1.52711 11.4827C1.49056 10.6604 1.48143 10.4137 1.48143 8.3335C1.48143 6.25028 1.49056 6.00358 1.52711 5.1843C1.56061 4.42288 1.68853 4.01172 1.79513 3.73761C1.93523 3.37518 2.10578 3.11325 2.37685 2.84219C2.65096 2.56808 2.90984 2.40057 3.27227 2.26047C3.54638 2.15387 3.96059 2.02596 4.71895 1.99245C5.53823 1.95591 5.78493 1.94677 7.86816 1.94677ZM7.86816 0.542725C5.75143 0.542725 5.48646 0.551862 4.65499 0.588409C3.82658 0.624957 3.25704 0.758966 2.76365 0.950842C2.24893 1.15185 1.8134 1.41683 1.38092 1.85235C0.945391 2.28484 0.680419 2.72037 0.479406 3.23204C0.28753 3.72848 0.153522 4.29497 0.116974 5.12338C0.080426 5.95789 0.0712891 6.22287 0.0712891 8.33959C0.0712891 10.4563 0.080426 10.7213 0.116974 11.5528C0.153522 12.3812 0.28753 12.9507 0.479406 13.4441C0.680419 13.9588 0.945391 14.3943 1.38092 14.8268C1.8134 15.2593 2.24893 15.5273 2.7606 15.7253C3.25704 15.9172 3.82353 16.0512 4.65195 16.0877C5.48341 16.1243 5.74838 16.1334 7.86511 16.1334C9.98184 16.1334 10.2468 16.1243 11.0783 16.0877C11.9067 16.0512 12.4762 15.9172 12.9696 15.7253C13.4813 15.5273 13.9168 15.2593 14.3493 14.8268C14.7818 14.3943 15.0498 13.9588 15.2478 13.4472C15.4396 12.9507 15.5737 12.3842 15.6102 11.5558C15.6468 10.7243 15.6559 10.4594 15.6559 8.34264C15.6559 6.22591 15.6468 5.96094 15.6102 5.12948C15.5737 4.30106 15.4396 3.73152 15.2478 3.23813C15.0559 2.72037 14.7909 2.28484 14.3554 1.85235C13.9229 1.41987 13.4874 1.15185 12.9757 0.953888C12.4793 0.762012 11.9128 0.628003 11.0844 0.591455C10.2499 0.551862 9.98489 0.542725 7.86816 0.542725Z" fill="#474747"/>
<path id="Vector_2" d="M7.86831 4.33447C5.65717 4.33447 3.86328 6.12836 3.86328 8.3395C3.86328 10.5506 5.65717 12.3445 7.86831 12.3445C10.0795 12.3445 11.8733 10.5506 11.8733 8.3395C11.8733 6.12836 10.0795 4.33447 7.86831 4.33447ZM7.86831 10.9374C6.43381 10.9374 5.27037 9.77401 5.27037 8.3395C5.27037 6.905 6.43381 5.74156 7.86831 5.74156C9.30281 5.74156 10.4663 6.905 10.4663 8.3395C10.4663 9.77401 9.30281 10.9374 7.86831 10.9374Z" fill="#474747"/>
<path id="Vector_3" d="M12.9667 4.17623C12.9667 4.69399 12.5464 5.11124 12.0317 5.11124C11.5139 5.11124 11.0967 4.69094 11.0967 4.17623C11.0967 3.65847 11.517 3.24121 12.0317 3.24121C12.5464 3.24121 12.9667 3.66151 12.9667 4.17623Z" fill="#474747"/>
</g>
<defs>
<clipPath id="clip0_248_5646">
<rect width="15.5937" height="15.5937" fill="white" transform="translate(0.0712891 0.542725)"/>
</clipPath>
</defs>
</svg>
