<svg width="20" height="19" viewBox="0 0 20 19" fill="none" xmlns="http://www.w3.org/2000/svg">
<g id="Group 288">
<path id="Vector" d="M9.86944 0.106934H9.86937C4.77031 0.106934 0.636719 4.24051 0.636719 9.33956V9.33963C0.636719 14.4387 4.77031 18.5723 9.86937 18.5723H9.86944C14.9685 18.5723 19.1021 14.4387 19.1021 9.33963V9.33956C19.1021 4.24051 14.9685 0.106934 9.86944 0.106934Z" fill="#474747"/>
<path id="Vector_2" d="M9.83763 4.35412C9.83763 4.35412 10.0232 3.92809 10.4423 3.65665C10.6462 3.52494 11.0035 3.32221 11.0677 3.43674C11.0963 3.48599 11.0035 3.61427 10.9108 3.81355C10.8741 3.89487 10.7894 4.16171 10.7894 4.16171C10.7894 4.16171 11.1593 3.6784 11.8076 3.55012C12.3172 3.44933 12.8681 3.51579 12.9311 3.62803C12.9998 3.75058 12.639 4.01972 12.5256 4.25451C12.4123 4.48815 12.3264 4.78707 12.3264 4.78707C12.3264 4.78707 13.0089 4.46523 13.1807 4.39651C13.3938 4.31176 13.8565 4.13423 13.9206 4.21211C13.9848 4.28884 13.7168 4.74126 13.6584 4.82258C13.5873 4.92336 13.4797 5.10775 13.4797 5.10775C13.4797 5.10775 13.8072 4.95886 13.9344 4.88098C14.0638 4.8031 14.3467 4.58091 14.412 4.62444C14.4761 4.66681 14.4761 5.09974 14.4326 5.28642C14.3765 5.53495 14.113 5.80637 14.113 5.80637C14.113 5.80637 14.4899 5.89114 14.696 6.15456C14.9022 6.41912 15.0224 6.62411 15.1083 6.88753C15.2366 7.27922 15.2927 7.81296 15.2652 7.9126C15.2366 8.01224 15.0797 7.87708 14.7876 7.85647C14.6147 7.84272 14.5746 7.84158 14.5746 7.84158C14.5746 7.84158 14.7395 8.03744 14.8162 8.21839C14.9159 8.45318 15.0258 8.82309 15.0865 8.97999C15.1495 9.14377 15.1999 9.27206 15.2927 9.45646C15.319 9.51143 15.1003 9.56411 14.8804 9.35681C14.8059 9.28809 14.7166 9.22165 14.7166 9.22165C14.7166 9.22165 14.846 9.99702 14.8369 10.5158C14.83 10.8995 14.7441 11.597 14.6307 11.6611C14.5173 11.7253 14.2894 11.2351 14.2894 11.2351C14.2894 11.2351 14.1909 11.7929 14.0764 12.1662C13.9412 12.6072 13.813 12.8133 13.7351 13.0768C13.6423 13.3906 13.5495 13.6173 13.4865 13.5177C13.4304 13.4318 13.372 13.2978 13.3159 13.197C13.2724 13.1214 13.1727 12.9198 13.1727 12.9198C13.1727 12.9198 13.0731 13.5234 12.5898 13.93C12.1065 14.3366 11.7938 14.663 11.5647 14.6905C11.4307 14.7077 11.5865 14.1006 11.5865 14.1006C11.5865 14.1006 10.8318 14.6928 10.4698 14.9619C10.3061 15.0833 10.156 15.4819 10.0426 15.4532C9.9281 15.4246 9.63721 14.9825 9.45281 14.8485C9.26727 14.7145 8.9191 14.5565 8.86985 14.5279C8.81946 14.5004 8.58465 14.3503 8.58465 14.3503C8.58465 14.3503 8.64308 14.6813 8.57779 14.7134C8.43463 14.7844 7.88719 14.3927 7.73028 14.151C7.57338 13.9094 7.29733 13.4112 7.29733 13.4112C7.29733 13.4112 7.26185 13.8888 7.14732 13.8097C7.02592 13.7273 6.43606 13.2898 6.22991 12.9622C6.08445 12.7309 5.83135 12.0803 5.83135 12.0803C5.83135 12.0803 5.61146 12.3083 5.54618 12.3358C5.48204 12.3644 5.3194 12.4296 5.34688 12.18C5.37552 11.9314 5.18081 11.3668 5.14874 11.0278C5.10636 10.5869 5.19114 10.131 5.19114 10.131C5.19114 10.131 4.82807 10.6155 4.65742 10.6075C4.48677 10.6006 4.58642 9.6695 4.6288 9.38432C4.67117 9.09914 4.81319 8.60205 4.87045 8.42339C4.92657 8.24586 5.14074 7.98359 5.14074 7.98359C5.14074 7.98359 4.61392 8.16113 4.53604 8.09012C4.45815 8.02026 4.57838 7.38575 4.65054 7.00207C4.68604 6.80508 4.84181 6.49701 5.04109 6.26909C5.24037 6.04232 5.54617 6.08467 5.5748 5.98389C5.60344 5.88425 5.46141 5.80522 5.36177 5.64258C5.21174 5.40092 5.12699 4.90274 5.20487 4.81685C5.25298 4.76416 5.52557 4.97375 5.85313 5.00926C6.18068 5.04476 6.47156 5.02299 6.47156 5.02299C6.47156 5.02299 6.2826 4.8008 6.20128 4.61755C6.08675 4.36215 6.07988 4.05636 6.15203 3.97734C6.22304 3.89831 6.47274 4.14109 6.80717 4.22584C7.1416 4.3106 7.63979 4.31864 7.63979 4.31864C7.63979 4.31864 7.42677 4.09071 7.36951 3.82729C7.31339 3.56502 7.32713 3.40123 7.41876 3.3726C7.51267 3.34397 7.78295 3.59825 7.97421 3.65781C8.18037 3.72194 8.87787 3.6784 9.19054 3.77231C9.50435 3.86508 9.83763 4.35412 9.83763 4.35412Z" fill="white"/>
<path id="Vector_3" d="M8.78847 9.54771C8.69226 9.64392 8.87437 10.1708 9.03586 10.4399C9.19735 10.7091 9.65889 11.1489 9.91773 11.1385C10.1754 11.1282 10.6599 10.59 10.8099 10.1925C10.96 9.79512 11.0035 9.54772 10.9393 9.45037C10.8752 9.35302 10.1113 9.47215 9.82154 9.47215C9.53178 9.47215 8.88582 9.45151 8.78847 9.54771Z" fill="#474747"/>
<path id="Vector_4" d="M12.0405 7.85433C12.139 7.6058 12.0222 7.32518 11.7783 7.22898C11.5343 7.13163 11.256 7.25419 11.1575 7.50272C11.0578 7.75125 11.1758 8.03185 11.4198 8.1292C11.6637 8.2254 11.9409 8.10287 12.0405 7.85433Z" fill="#474747"/>
<path id="Vector_5" d="M8.31421 8.07854C8.56388 7.97661 8.68302 7.688 8.57879 7.4326C8.47572 7.17834 8.18822 7.0535 7.93855 7.15543C7.68887 7.25736 7.56976 7.54597 7.67284 7.80137C7.77706 8.05563 8.06339 8.18047 8.31421 8.07854Z" fill="#474747"/>
<path id="Vector_6" d="M9.89486 10.769C9.89486 10.769 9.47912 11.2215 9.29816 11.2902C9.04505 11.3864 8.65336 11.3039 8.64191 11.4597C8.6316 11.6211 8.88355 11.7907 9.2867 11.7368C9.73222 11.6773 9.89944 11.4036 9.89944 11.4036C9.89944 11.4036 10.1526 11.7632 10.6416 11.7849C11.1306 11.8067 11.244 11.4952 11.1089 11.4517C10.9256 11.3932 10.8111 11.4047 10.534 11.3176C10.3141 11.2466 9.89486 10.769 9.89486 10.769Z" fill="#474747"/>
</g>
</svg>
