<svg width="269" height="316" viewBox="0 0 269 316" fill="none" xmlns="http://www.w3.org/2000/svg">
<mask id="mask0_41_829" style="mask-type:luminance" maskUnits="userSpaceOnUse" x="0" y="40" width="34" height="34">
<path d="M0 40H33.6V73.6H0V40Z" fill="white"/>
</mask>
<g mask="url(#mask0_41_829)">
<path d="M3.9041e-05 40V39.04H-0.959961V40H3.9041e-05ZM33.6 40H34.56V39.04H33.6V40ZM33.6 73.6V74.56H34.56V73.6H33.6ZM3.9041e-05 73.6H-0.959961V74.56H3.9041e-05V73.6ZM3.9041e-05 40.96H33.6V39.04H3.9041e-05V40.96ZM32.64 40V73.6H34.56V40H32.64ZM33.6 72.64H3.9041e-05V74.56H33.6V72.64ZM0.960039 73.6V40H-0.959961V73.6H0.960039Z" fill="#FDBA74"/>
</g>
<path d="M5.19824 48.3313H9.03027L11.8779 60.1906H12.0303L15.1357 48.3313H18.4639L21.5811 60.2258H21.7217L24.5693 48.3313H28.4014L23.5615 65.3H20.1045L16.8701 54.0969H16.7412L13.4951 65.3H10.0498L5.19824 48.3313Z" fill="#F97316"/>
<path d="M4.23262 47.3114H3.38324V44.0432H3.36074L2.42981 44.6339V43.8801L3.43668 43.2389H4.23262V47.3114Z" fill="#FDBA74"/>
<mask id="mask1_41_829" style="mask-type:luminance" maskUnits="userSpaceOnUse" x="0" y="73" width="34" height="35">
<path d="M0 73.6H33.6V107.2H0V73.6Z" fill="white"/>
</mask>
<g mask="url(#mask1_41_829)">
<path d="M33.6 107.2V108.16H34.56V107.2H33.6ZM3.9041e-05 107.2H-0.959961V108.16H3.9041e-05V107.2ZM32.64 73.6V107.2H34.56V73.6H32.64ZM33.6 106.24H3.9041e-05V108.16H33.6V106.24ZM0.960039 107.2V73.6H-0.959961V107.2H0.960039Z" fill="#FDBA74"/>
</g>
<path d="M11.1748 81.9313H22.5654V84.8375H14.6904V88.9625H21.9678V91.857H14.6904V95.9938H22.5889V98.9H11.1748V81.9313Z" fill="#FB923C"/>
<path d="M0 107.2H33.6V140.8H0V107.2Z" fill="#F97316"/>
<mask id="mask2_41_829" style="mask-type:luminance" maskUnits="userSpaceOnUse" x="0" y="107" width="34" height="34">
<path d="M0 107.2H33.6V140.8H0V107.2Z" fill="white"/>
</mask>
<g mask="url(#mask2_41_829)">
<path d="M32.64 107.2V140.8H34.56V107.2H32.64Z" fill="#FDBA74"/>
</g>
<path d="M0 140.8H33.6V174.4H0V140.8Z" fill="#F97316"/>
<mask id="mask3_41_829" style="mask-type:luminance" maskUnits="userSpaceOnUse" x="0" y="140" width="34" height="35">
<path d="M0 140.8H33.6V174.4H0V140.8Z" fill="white"/>
</mask>
<g mask="url(#mask3_41_829)">
<path d="M32.64 140.8V174.4H34.56V140.8H32.64Z" fill="#FDBA74"/>
</g>
<mask id="mask4_41_829" style="mask-type:luminance" maskUnits="userSpaceOnUse" x="0" y="174" width="34" height="34">
<path d="M0 174.4H33.6V208H0V174.4Z" fill="white"/>
</mask>
<g mask="url(#mask4_41_829)">
<path d="M32.64 174.4V208H34.56V174.4H32.64Z" fill="#FDBA74"/>
</g>
<path d="M4.10327 181.016H7.24343L11.0768 196.228H11.2671L15.2365 181.016H18.3495L22.3461 196.241H22.5092L26.3562 181.016H29.4828L24.0181 200.7H21.0003L16.8814 185.978H16.7318L12.5857 200.7H9.56796L4.10327 181.016Z" fill="white"/>
<mask id="mask5_41_829" style="mask-type:luminance" maskUnits="userSpaceOnUse" x="0" y="208" width="34" height="34">
<path d="M0 208H33.6V241.6H0V208Z" fill="white"/>
</mask>
<g mask="url(#mask5_41_829)">
<path d="M3.9041e-05 208V207.04H-0.959961V208H3.9041e-05ZM33.6 208H34.56V207.04H33.6V208ZM33.6 241.6V242.56H34.56V241.6H33.6ZM3.9041e-05 241.6H-0.959961V242.56H3.9041e-05V241.6ZM3.9041e-05 208.96H33.6V207.04H3.9041e-05V208.96ZM32.64 208V241.6H34.56V208H32.64ZM33.6 240.64H3.9041e-05V242.56H33.6V240.64ZM0.960039 241.6V208H-0.959961V241.6H0.960039Z" fill="#FDBA74"/>
</g>
<path d="M9.85059 216.331H23.749V219.238H18.5459V233.3H15.0654V219.238H9.85059V216.331Z" fill="#EA580C"/>
<path d="M5.14067 211.602V211.577H3.1438V210.882H6.01817V211.588L4.29974 214.955H3.42786L5.14067 211.602Z" fill="#FDBA74"/>
<mask id="mask6_41_829" style="mask-type:luminance" maskUnits="userSpaceOnUse" x="0" y="241" width="34" height="35">
<path d="M0 241.6H33.6V275.2H0V241.6Z" fill="white"/>
</mask>
<g mask="url(#mask6_41_829)">
<path d="M33.6 275.2V276.16H34.56V275.2H33.6ZM3.9041e-05 275.2H-0.959961V276.16H3.9041e-05V275.2ZM32.64 241.6V275.2H34.56V241.6H32.64ZM33.6 274.24H3.9041e-05V276.16H33.6V274.24ZM0.960039 275.2V241.6H-0.959961V275.2H0.960039Z" fill="#FDBA74"/>
</g>
<mask id="mask7_41_829" style="mask-type:luminance" maskUnits="userSpaceOnUse" x="33" y="40" width="35" height="34">
<path d="M33.6001 40H67.2001V73.6H33.6001V40Z" fill="white"/>
</mask>
<g mask="url(#mask7_41_829)">
<path d="M67.2001 40H68.1601V39.04H67.2001V40ZM67.2001 73.6V74.56H68.1601V73.6H67.2001ZM33.6001 40.96H67.2001V39.04H33.6001V40.96ZM66.2401 40V73.6H68.1601V40H66.2401ZM67.2001 72.64H33.6001V74.56H67.2001V72.64Z" fill="#FDBA74"/>
</g>
<path d="M35.8375 46.7011L37.3028 45.3539C37.4471 45.2151 37.5596 45.1008 37.6403 45.0108C37.7209 44.9189 37.7818 44.827 37.8231 44.7351C37.8662 44.6414 37.8878 44.542 37.8878 44.437C37.8878 44.3208 37.8596 44.2186 37.8034 44.1304C37.7471 44.0404 37.6703 43.972 37.5728 43.9251C37.4753 43.8783 37.3646 43.8548 37.2409 43.8548C37.1153 43.8548 37.0037 43.8801 36.9062 43.9308C36.8106 43.9814 36.7365 44.0554 36.684 44.1529C36.6334 44.2486 36.6081 44.3601 36.6081 44.4876H35.8037C35.8037 44.227 35.8637 43.9983 35.9837 43.8014C36.1056 43.6026 36.2753 43.4498 36.4928 43.3429C36.7121 43.2361 36.9643 43.1826 37.2493 43.1826C37.5362 43.1826 37.7893 43.2333 38.0087 43.3345C38.2281 43.4358 38.3978 43.5773 38.5178 43.7592C38.6396 43.9411 38.7006 44.1492 38.7006 44.3836C38.7006 44.5429 38.6696 44.6967 38.6078 44.8448C38.5478 44.9929 38.4409 45.157 38.2871 45.337C38.1353 45.517 37.9187 45.7345 37.6375 45.9895L37.0159 46.5886V46.6167H38.7596V47.3114H35.8403L35.8375 46.7011Z" fill="#FDBA74"/>
<mask id="mask8_41_829" style="mask-type:luminance" maskUnits="userSpaceOnUse" x="33" y="73" width="35" height="35">
<path d="M33.6001 73.6H67.2001V107.2H33.6001V73.6Z" fill="white"/>
</mask>
<g mask="url(#mask8_41_829)">
<path d="M67.2001 107.2V108.16H68.1601V107.2H67.2001ZM66.2401 73.6V107.2H68.1601V73.6H66.2401ZM67.2001 106.24H33.6001V108.16H67.2001V106.24Z" fill="#FDBA74"/>
</g>
<path d="M37.7032 80.2163H40.8434L44.6768 95.4277H44.8671L48.8365 80.2163H51.9495L55.9461 95.4413H56.1092L59.9562 80.2163H63.0828L57.6181 99.9H54.6003L50.4814 85.178H50.3318L46.1857 99.9H43.1679L37.7032 80.2163Z" fill="white"/>
<mask id="mask9_41_829" style="mask-type:luminance" maskUnits="userSpaceOnUse" x="33" y="107" width="35" height="34">
<path d="M33.6001 107.2H67.2001V140.8H33.6001V107.2Z" fill="white"/>
</mask>
<g mask="url(#mask9_41_829)">
<path d="M67.2001 140.8V141.76H68.1601V140.8H67.2001ZM66.2401 107.2V140.8H68.1601V107.2H66.2401ZM67.2001 139.84H33.6001V141.76H67.2001V139.84Z" fill="#FDBA74"/>
</g>
<path d="M45.0913 115.531H56.271V118.438H48.6069V122.563H55.5327V125.457H48.6069V132.5H45.0913V115.531Z" fill="#F97316"/>
<mask id="mask10_41_829" style="mask-type:luminance" maskUnits="userSpaceOnUse" x="33" y="140" width="35" height="35">
<path d="M33.6001 140.8H67.2001V174.4H33.6001V140.8Z" fill="white"/>
</mask>
<g mask="url(#mask10_41_829)">
<path d="M67.2001 174.4V175.36H68.1601V174.4H67.2001ZM66.2401 140.8V174.4H68.1601V140.8H66.2401ZM67.2001 173.44H33.6001V175.36H67.2001V173.44Z" fill="#FDBA74"/>
</g>
<path d="M52.1577 166.1H48.6421V149.131H52.1577V166.1Z" fill="white"/>
<path d="M36.0839 146.366L37.8052 143.682H38.3789V144.611H38.0358L36.9389 146.321V146.354H39.383V147.035H36.0839V146.366ZM38.0611 146.83L38.0724 146.534V143.682H38.8683V147.755H38.0611V146.83Z" fill="#FDBA74"/>
<mask id="mask11_41_829" style="mask-type:luminance" maskUnits="userSpaceOnUse" x="33" y="174" width="35" height="34">
<path d="M33.6001 174.4H67.2001V208H33.6001V174.4Z" fill="white"/>
</mask>
<g mask="url(#mask11_41_829)">
<path d="M66.2401 174.4V208H68.1601V174.4H66.2401Z" fill="#FDBA74"/>
</g>
<path d="M37.7032 181.016H40.8434L44.6768 196.228H44.8671L48.8365 181.016H51.9495L55.9461 196.241H56.1092L59.9562 181.016H63.0828L57.6181 200.7H54.6003L50.4814 185.978H50.3318L46.1857 200.7H43.1679L37.7032 181.016Z" fill="white"/>
<mask id="mask12_41_829" style="mask-type:luminance" maskUnits="userSpaceOnUse" x="33" y="208" width="35" height="34">
<path d="M33.6001 208H67.2001V241.6H33.6001V208Z" fill="white"/>
</mask>
<g mask="url(#mask12_41_829)">
<path d="M67.2001 208H68.1601V207.04H67.2001V208ZM67.2001 241.6V242.56H68.1601V241.6H67.2001ZM33.6001 208.96H67.2001V207.04H33.6001V208.96ZM66.2401 208V241.6H68.1601V208H66.2401ZM67.2001 240.64H33.6001V242.56H67.2001V240.64Z" fill="#FDBA74"/>
</g>
<path d="M58.3218 224.816C58.3218 226.613 57.978 228.171 57.2905 229.491C56.6108 230.804 55.6694 231.808 54.4663 232.503C53.271 233.191 51.9155 233.534 50.3999 233.534C48.8843 233.534 47.5249 233.191 46.3218 232.503C45.1265 231.808 44.1851 230.8 43.4976 229.48C42.8179 228.159 42.478 226.605 42.478 224.816C42.478 223.003 42.8179 221.441 43.4976 220.128C44.1851 218.816 45.1265 217.816 46.3218 217.128C47.5249 216.441 48.8843 216.097 50.3999 216.097C51.9155 216.097 53.271 216.441 54.4663 217.128C55.6694 217.816 56.6108 218.816 57.2905 220.128C57.978 221.441 58.3218 223.003 58.3218 224.816ZM54.7593 224.816C54.7593 223.62 54.5796 222.605 54.2202 221.769C53.8687 220.933 53.3647 220.3 52.7085 219.87C52.0601 219.433 51.2905 219.214 50.3999 219.214C49.5171 219.214 48.7476 219.433 48.0913 219.87C47.4429 220.3 46.939 220.933 46.5796 221.769C46.2202 222.605 46.0405 223.62 46.0405 224.816C46.0405 226.011 46.2202 227.027 46.5796 227.863C46.939 228.698 47.4429 229.335 48.0913 229.773C48.7476 230.202 49.5171 230.417 50.3999 230.417C51.2905 230.417 52.0601 230.202 52.7085 229.773C53.3647 229.335 53.8687 228.698 54.2202 227.863C54.5796 227.027 54.7593 226.011 54.7593 224.816Z" fill="#EA580C"/>
<path d="M100.8 40H67.2002V73.6H100.8V40Z" fill="#F97316"/>
<path d="M67.2002 73.6H100.8V107.2H67.2002V73.6Z" fill="#F97316"/>
<mask id="mask13_41_829" style="mask-type:luminance" maskUnits="userSpaceOnUse" x="67" y="73" width="34" height="35">
<path d="M67.2002 73.6H100.8V107.2H67.2002V73.6Z" fill="white"/>
</mask>
<g mask="url(#mask13_41_829)">
<path d="M100.8 106.24H67.2002V108.16H100.8V106.24Z" fill="#FDBA74"/>
</g>
<path d="M71.3033 80.2163H74.4436L78.2769 95.4277H78.4672L82.4366 80.2163H85.5496L89.5462 95.4413H89.7093L93.5563 80.2163H96.6829L91.2182 99.9H88.2004L84.0815 85.178H83.9319L79.7858 99.9H76.768L71.3033 80.2163Z" fill="#F97316"/>
<mask id="mask14_41_829" style="mask-type:luminance" maskUnits="userSpaceOnUse" x="67" y="107" width="34" height="34">
<path d="M67.2002 107.2H100.8V140.8H67.2002V107.2Z" fill="white"/>
</mask>
<g mask="url(#mask14_41_829)">
<path d="M100.8 140.8V141.76H101.76V140.8H100.8ZM99.8402 107.2V140.8H101.76V107.2H99.8402ZM100.8 139.84H67.2002V141.76H100.8V139.84Z" fill="#FDBA74"/>
</g>
<path d="M85.7578 132.5H82.2422V115.531H85.7578V132.5Z" fill="#F97316"/>
<path d="M71.3125 114.211C71.0162 114.211 70.7509 114.161 70.5165 114.059C70.2822 113.958 70.0984 113.816 69.9653 113.632C69.834 113.448 69.7656 113.24 69.76 113.007H70.6122C70.6178 113.103 70.6515 113.189 70.7134 113.266C70.7753 113.343 70.8587 113.403 70.9637 113.446C71.0687 113.489 71.185 113.511 71.3125 113.511C71.4456 113.511 71.5656 113.487 71.6725 113.441C71.7812 113.392 71.8647 113.326 71.9228 113.244C71.9809 113.159 72.009 113.064 72.0072 112.957C72.009 112.846 71.979 112.748 71.9172 112.661C71.8553 112.575 71.7653 112.509 71.6472 112.462C71.5309 112.413 71.394 112.389 71.2365 112.389H70.8569V111.764H71.2365C71.3697 111.764 71.4887 111.742 71.5937 111.697C71.6987 111.65 71.7794 111.585 71.8356 111.503C71.8919 111.42 71.919 111.326 71.9172 111.221C71.919 111.118 71.8956 111.027 71.8469 110.949C71.7981 110.868 71.7278 110.806 71.6359 110.763C71.544 110.72 71.439 110.698 71.3209 110.698C71.2009 110.698 71.0912 110.72 70.9919 110.763C70.8925 110.804 70.8119 110.864 70.75 110.943C70.69 111.02 70.6572 111.11 70.6515 111.213H69.8415C69.849 110.982 69.9175 110.777 70.0469 110.597C70.1762 110.417 70.3515 110.277 70.5728 110.178C70.7959 110.077 71.0453 110.026 71.3209 110.026C71.6003 110.026 71.8469 110.076 72.0606 110.175C72.2744 110.275 72.4403 110.411 72.5584 110.586C72.6765 110.76 72.7337 110.955 72.73 111.171C72.7337 111.319 72.7028 111.454 72.6372 111.576C72.5734 111.698 72.4825 111.798 72.3644 111.877C72.2481 111.954 72.1131 112.006 71.9594 112.034V112.065C72.1581 112.09 72.3269 112.145 72.4656 112.231C72.6062 112.316 72.7122 112.424 72.7834 112.557C72.8547 112.691 72.8884 112.842 72.8847 113.013C72.8884 113.24 72.8228 113.445 72.6878 113.629C72.5528 113.811 72.3653 113.953 72.1253 114.056C71.8853 114.16 71.6144 114.211 71.3125 114.211Z" fill="#FDBA74"/>
<mask id="mask15_41_829" style="mask-type:luminance" maskUnits="userSpaceOnUse" x="67" y="140" width="34" height="35">
<path d="M67.2002 140.8H100.8V174.4H67.2002V140.8Z" fill="white"/>
</mask>
<g mask="url(#mask15_41_829)">
<path d="M100.8 174.4V175.36H101.76V174.4H100.8ZM99.8402 140.8V174.4H101.76V140.8H99.8402ZM100.8 173.44H67.2002V175.36H100.8V173.44Z" fill="#FDBA74"/>
</g>
<path d="M88.0898 155.049C88.0039 154.424 87.793 153.885 87.457 153.432C87.1289 152.971 86.6992 152.62 86.168 152.377C85.6367 152.135 85.0469 152.014 84.3984 152.014C83.5156 152.014 82.7422 152.237 82.0781 152.682C81.4219 153.12 80.9102 153.76 80.543 154.604C80.1758 155.44 79.9922 156.444 79.9922 157.616C79.9922 158.819 80.1758 159.838 80.543 160.674C80.9102 161.502 81.4219 162.135 82.0781 162.573C82.7422 163.002 83.5039 163.217 84.3633 163.217C85.0117 163.217 85.5938 163.1 86.1094 162.866C86.6328 162.631 87.0664 162.299 87.4102 161.87C87.7539 161.432 87.9805 160.913 88.0898 160.311L91.6641 160.346C91.5312 161.409 91.1484 162.397 90.5156 163.311C89.8906 164.225 89.0469 164.959 87.9844 165.514C86.9219 166.061 85.6992 166.334 84.3164 166.334C82.8008 166.334 81.4453 165.991 80.25 165.303C79.0547 164.608 78.1172 163.604 77.4375 162.291C76.7656 160.971 76.4297 159.413 76.4297 157.616C76.4297 155.803 76.7695 154.241 77.4492 152.928C78.1367 151.616 79.0742 150.616 80.2617 149.928C81.457 149.241 82.8086 148.897 84.3164 148.897C85.6211 148.897 86.8008 149.139 87.8555 149.623C88.9102 150.108 89.7656 150.815 90.4219 151.745C91.0859 152.666 91.5 153.768 91.6641 155.049H88.0898Z" fill="#FB923C"/>
<path d="M67.2002 174.4H100.8V208H67.2002V174.4Z" fill="#F97316"/>
<mask id="mask16_41_829" style="mask-type:luminance" maskUnits="userSpaceOnUse" x="67" y="174" width="34" height="34">
<path d="M67.2002 174.4H100.8V208H67.2002V174.4Z" fill="white"/>
</mask>
<g mask="url(#mask16_41_829)">
<path d="M100.8 208V208.96H101.76V208H100.8ZM99.8402 174.4V208H101.76V174.4H99.8402ZM100.8 207.04H67.2002V208.96H100.8V207.04Z" fill="#F97316"/>
</g>
<mask id="mask17_41_829" style="mask-type:luminance" maskUnits="userSpaceOnUse" x="67" y="208" width="34" height="34">
<path d="M67.2002 208H100.8V241.6H67.2002V208Z" fill="white"/>
</mask>
<g mask="url(#mask17_41_829)">
<path d="M100.8 208H101.76V207.04H100.8V208ZM100.8 241.6V242.56H101.76V241.6H100.8ZM67.2002 208.96H100.8V207.04H67.2002V208.96ZM99.8402 208V241.6H101.76V208H99.8402ZM100.8 240.64H67.2002V242.56H100.8V240.64Z" fill="#FDBA74"/>
</g>
<path d="M87.9023 221.804C87.7539 221.265 87.5117 220.804 87.1758 220.421C86.8398 220.03 86.4297 219.734 85.9453 219.53C85.4688 219.32 84.918 219.214 84.293 219.214C83.418 219.214 82.6484 219.433 81.9844 219.87C81.3281 220.308 80.8125 220.948 80.4375 221.792C80.0703 222.628 79.8867 223.632 79.8867 224.804C79.8867 225.984 80.0664 226.995 80.4258 227.839C80.793 228.675 81.3086 229.316 81.9727 229.761C82.6445 230.198 83.4297 230.417 84.3281 230.417C85.1406 230.417 85.8398 230.269 86.4258 229.972C87.0195 229.675 87.4688 229.257 87.7734 228.718C88.0859 228.171 88.2422 227.534 88.2422 226.808L88.9688 226.913H84.5625V224.23H91.6406V226.363C91.6406 227.823 91.3281 229.097 90.7031 230.183C90.0781 231.261 89.2109 232.089 88.1016 232.667C87 233.245 85.7383 233.534 84.3164 233.534C82.7383 233.534 81.3438 233.183 80.1328 232.48C78.9297 231.769 77.9922 230.757 77.3203 229.445C76.6562 228.132 76.3242 226.593 76.3242 224.827C76.3242 223.038 76.668 221.488 77.3555 220.175C78.0508 218.855 78.9961 217.847 80.1914 217.152C81.3867 216.448 82.7344 216.097 84.2344 216.097C85.5 216.097 86.6562 216.339 87.7031 216.823C88.75 217.308 89.6016 217.98 90.2578 218.839C90.9219 219.698 91.332 220.687 91.4883 221.804H87.9023Z" fill="#FB923C"/>
<path d="M100.8 73.6H134.4V107.2H100.8V73.6Z" fill="#F97316"/>
<mask id="mask18_41_829" style="mask-type:luminance" maskUnits="userSpaceOnUse" x="100" y="73" width="35" height="35">
<path d="M100.8 73.6H134.4V107.2H100.8V73.6Z" fill="white"/>
</mask>
<g mask="url(#mask18_41_829)">
<path d="M134.4 106.24H100.8V108.16H134.4V106.24Z" fill="#FDBA74"/>
</g>
<path d="M104.903 80.2163H108.043L111.877 95.4277H112.067L116.036 80.2163H119.149L123.146 95.4413H123.309L127.156 80.2163H130.283L124.818 99.9H121.8L117.681 85.178H117.532L113.386 99.9H110.368L104.903 80.2163Z" fill="#F97316"/>
<mask id="mask19_41_829" style="mask-type:luminance" maskUnits="userSpaceOnUse" x="100" y="107" width="35" height="34">
<path d="M100.8 107.2H134.4V140.8H100.8V107.2Z" fill="white"/>
</mask>
<g mask="url(#mask19_41_829)">
<path d="M134.4 140.8V141.76H135.36V140.8H134.4ZM133.44 107.2V140.8H135.36V107.2H133.44ZM134.4 139.84H100.8V141.76H134.4V139.84Z" fill="#FDBA74"/>
</g>
<path d="M110.65 115.531H124.549V118.438H119.346V132.5H115.865V118.438H110.65V115.531Z" fill="#F97316"/>
<mask id="mask20_41_829" style="mask-type:luminance" maskUnits="userSpaceOnUse" x="100" y="140" width="35" height="35">
<path d="M100.8 140.8H134.4V174.4H100.8V140.8Z" fill="white"/>
</mask>
<g mask="url(#mask20_41_829)">
<path d="M134.4 174.4V175.36H135.36V174.4H134.4ZM133.44 140.8V174.4H135.36V140.8H133.44ZM134.4 173.44H100.8V175.36H134.4V173.44Z" fill="#FDBA74"/>
</g>
<path d="M125.521 157.616C125.521 159.413 125.178 160.971 124.49 162.291C123.811 163.604 122.869 164.608 121.666 165.303C120.471 165.991 119.115 166.334 117.6 166.334C116.084 166.334 114.725 165.991 113.521 165.303C112.326 164.608 111.385 163.6 110.697 162.28C110.018 160.959 109.678 159.405 109.678 157.616C109.678 155.803 110.018 154.241 110.697 152.928C111.385 151.616 112.326 150.616 113.521 149.928C114.725 149.241 116.084 148.897 117.6 148.897C119.115 148.897 120.471 149.241 121.666 149.928C122.869 150.616 123.811 151.616 124.49 152.928C125.178 154.241 125.521 155.803 125.521 157.616ZM121.959 157.616C121.959 156.42 121.779 155.405 121.42 154.569C121.068 153.733 120.564 153.1 119.908 152.67C119.26 152.233 118.49 152.014 117.6 152.014C116.717 152.014 115.947 152.233 115.291 152.67C114.643 153.1 114.139 153.733 113.779 154.569C113.42 155.405 113.24 156.42 113.24 157.616C113.24 158.811 113.42 159.827 113.779 160.663C114.139 161.498 114.643 162.135 115.291 162.573C115.947 163.002 116.717 163.217 117.6 163.217C118.49 163.217 119.26 163.002 119.908 162.573C120.564 162.135 121.068 161.498 121.42 160.663C121.779 159.827 121.959 158.811 121.959 157.616Z" fill="#FB923C"/>
<path d="M100.8 174.4H134.4V208H100.8V174.4Z" fill="#F97316"/>
<mask id="mask21_41_829" style="mask-type:luminance" maskUnits="userSpaceOnUse" x="100" y="174" width="35" height="34">
<path d="M100.8 174.4H134.4V208H100.8V174.4Z" fill="white"/>
</mask>
<g mask="url(#mask21_41_829)">
<path d="M134.4 208V208.96H135.36V208H134.4ZM133.44 174.4V208H135.36V174.4H133.44ZM134.4 207.04H100.8V208.96H134.4V207.04Z" fill="#F97316"/>
</g>
<mask id="mask22_41_829" style="mask-type:luminance" maskUnits="userSpaceOnUse" x="100" y="208" width="35" height="34">
<path d="M100.8 208H134.4V241.6H100.8V208Z" fill="white"/>
</mask>
<g mask="url(#mask22_41_829)">
<path d="M134.4 208H135.36V207.04H134.4V208ZM134.4 241.6V242.56H135.36V241.6H134.4ZM100.8 208.96H134.4V207.04H100.8V208.96ZM133.44 208V241.6H135.36V208H133.44ZM134.4 240.64H100.8V242.56H134.4V240.64Z" fill="#FDBA74"/>
</g>
<path d="M111.975 216.331H123.365V219.238H115.49V223.363H122.768V226.257H115.49V230.394H123.389V233.3H111.975V216.331Z" fill="#FB923C"/>
<mask id="mask23_41_829" style="mask-type:luminance" maskUnits="userSpaceOnUse" x="134" y="73" width="34" height="35">
<path d="M134.4 73.6H168V107.2H134.4V73.6Z" fill="white"/>
</mask>
<g mask="url(#mask23_41_829)">
<path d="M168 106.24H134.4V108.16H168V106.24Z" fill="#FDBA74"/>
</g>
<path d="M138.503 80.2163H141.643L145.477 95.4277H145.667L149.636 80.2163H152.749L156.746 95.4413H156.909L160.756 80.2163H163.883L158.418 99.9H155.4L151.281 85.178H151.132L146.986 99.9H143.968L138.503 80.2163Z" fill="white"/>
<mask id="mask24_41_829" style="mask-type:luminance" maskUnits="userSpaceOnUse" x="134" y="107" width="34" height="34">
<path d="M134.4 107.2H168V140.8H134.4V107.2Z" fill="white"/>
</mask>
<g mask="url(#mask24_41_829)">
<path d="M168 139.84H134.4V141.76H168V139.84Z" fill="#FDBA74"/>
</g>
<mask id="mask25_41_829" style="mask-type:luminance" maskUnits="userSpaceOnUse" x="134" y="140" width="34" height="35">
<path d="M134.4 140.8H168V174.4H134.4V140.8Z" fill="white"/>
</mask>
<g mask="url(#mask25_41_829)">
<path d="M168 173.44H134.4V175.36H168V173.44Z" fill="#FDBA74"/>
</g>
<path d="M145.797 166.1V163.077H150.051C151.145 163.077 152.055 162.881 152.782 162.491C153.508 162.1 154.055 161.502 154.422 160.698C154.79 159.885 154.973 158.854 154.973 157.604C154.973 156.354 154.79 155.327 154.422 154.522C154.063 153.709 153.52 153.112 152.793 152.729C152.067 152.346 151.161 152.155 150.075 152.155H145.715V149.131H150.25C151.954 149.131 153.422 149.471 154.657 150.151C155.899 150.823 156.848 151.795 157.504 153.069C158.168 154.342 158.5 155.854 158.5 157.604C158.5 159.362 158.168 160.877 157.504 162.151C156.84 163.424 155.883 164.401 154.633 165.08C153.391 165.76 151.915 166.1 150.204 166.1H145.797ZM147.743 166.1H144.227V149.131H147.743V166.1Z" fill="#EA580C"/>
<path d="M134.4 174.4H168V208H134.4V174.4Z" fill="#F97316"/>
<mask id="mask26_41_829" style="mask-type:luminance" maskUnits="userSpaceOnUse" x="134" y="174" width="34" height="34">
<path d="M134.4 174.4H168V208H134.4V174.4Z" fill="white"/>
</mask>
<g mask="url(#mask26_41_829)">
<path d="M168 208V208.96H168.96V208H168ZM167.04 174.4V208H168.96V174.4H167.04ZM168 207.04H134.4V208.96H168V207.04Z" fill="#F97316"/>
</g>
<mask id="mask27_41_829" style="mask-type:luminance" maskUnits="userSpaceOnUse" x="134" y="208" width="34" height="34">
<path d="M134.4 208H168V241.6H134.4V208Z" fill="white"/>
</mask>
<g mask="url(#mask27_41_829)">
<path d="M168 208H168.96V207.04H168V208ZM168 241.6V242.56H168.96V241.6H168ZM134.4 208.96H168V207.04H134.4V208.96ZM167.04 208V241.6H168.96V208H167.04ZM168 240.64H134.4V242.56H168V240.64Z" fill="#FDBA74"/>
</g>
<path d="M144.25 216.331H158.149V219.238H152.946V233.3H149.465V219.238H144.25V216.331Z" fill="#EA580C"/>
<mask id="mask28_41_829" style="mask-type:luminance" maskUnits="userSpaceOnUse" x="168" y="73" width="34" height="35">
<path d="M168 73.6H201.6V107.2H168V73.6Z" fill="white"/>
</mask>
<g mask="url(#mask28_41_829)">
<path d="M201.6 106.24H168V108.16H201.6V106.24Z" fill="#FDBA74"/>
</g>
<path d="M172.103 80.2163H175.243L179.077 95.4277H179.267L183.237 80.2163H186.349L190.346 95.4413H190.509L194.356 80.2163H197.483L192.018 99.9H189L184.881 85.178H184.732L180.586 99.9H177.568L172.103 80.2163Z" fill="white"/>
<mask id="mask29_41_829" style="mask-type:luminance" maskUnits="userSpaceOnUse" x="168" y="107" width="34" height="34">
<path d="M168 107.2H201.6V140.8H168V107.2Z" fill="white"/>
</mask>
<g mask="url(#mask29_41_829)">
<path d="M201.6 140.8V141.76H202.56V140.8H201.6ZM168 140.8H167.04V141.76H168V140.8ZM200.64 107.2V140.8H202.56V107.2H200.64ZM201.6 139.84H168V141.76H201.6V139.84ZM168.96 140.8V107.2H167.04V140.8H168.96Z" fill="#FDBA74"/>
</g>
<path d="M192.722 124.016C192.722 125.813 192.378 127.371 191.69 128.691C191.011 130.004 190.069 131.008 188.866 131.703C187.671 132.391 186.315 132.734 184.8 132.734C183.284 132.734 181.925 132.391 180.722 131.703C179.526 131.008 178.585 130 177.897 128.68C177.218 127.359 176.878 125.805 176.878 124.016C176.878 122.203 177.218 120.641 177.897 119.328C178.585 118.016 179.526 117.016 180.722 116.328C181.925 115.641 183.284 115.297 184.8 115.297C186.315 115.297 187.671 115.641 188.866 116.328C190.069 117.016 191.011 118.016 191.69 119.328C192.378 120.641 192.722 122.203 192.722 124.016ZM189.159 124.016C189.159 122.82 188.979 121.805 188.62 120.969C188.269 120.133 187.765 119.5 187.108 119.07C186.46 118.633 185.69 118.414 184.8 118.414C183.917 118.414 183.147 118.633 182.491 119.07C181.843 119.5 181.339 120.133 180.979 120.969C180.62 121.805 180.44 122.82 180.44 124.016C180.44 125.211 180.62 126.227 180.979 127.063C181.339 127.898 181.843 128.535 182.491 128.973C183.147 129.402 183.917 129.617 184.8 129.617C185.69 129.617 186.46 129.402 187.108 128.973C187.765 128.535 188.269 127.898 188.62 127.063C188.979 126.227 189.159 125.211 189.159 124.016Z" fill="#EA580C"/>
<mask id="mask30_41_829" style="mask-type:luminance" maskUnits="userSpaceOnUse" x="168" y="140" width="34" height="35">
<path d="M168 140.8H201.6V174.4H168V140.8Z" fill="white"/>
</mask>
<g mask="url(#mask30_41_829)">
<path d="M201.6 174.4V175.36H202.56V174.4H201.6ZM168 174.4H167.04V175.36H168V174.4ZM200.64 140.8V174.4H202.56V140.8H200.64ZM201.6 173.44H168V175.36H201.6V173.44ZM168.96 174.4V140.8H167.04V174.4H168.96Z" fill="#FDBA74"/>
</g>
<path d="M179.175 149.131H190.565V152.038H182.69V156.163H189.968V159.057H182.69V163.194H190.589V166.1H179.175V149.131Z" fill="#EA580C"/>
<path d="M168 174.4H201.6V208H168V174.4Z" fill="#F97316"/>
<mask id="mask31_41_829" style="mask-type:luminance" maskUnits="userSpaceOnUse" x="168" y="174" width="34" height="34">
<path d="M168 174.4H201.6V208H168V174.4Z" fill="white"/>
</mask>
<g mask="url(#mask31_41_829)">
<path d="M201.6 208V208.96H202.56V208H201.6ZM200.64 174.4V208H202.56V174.4H200.64ZM201.6 207.04H168V208.96H201.6V207.04Z" fill="#F97316"/>
</g>
<mask id="mask32_41_829" style="mask-type:luminance" maskUnits="userSpaceOnUse" x="168" y="208" width="34" height="34">
<path d="M168 208H201.6V241.6H168V208Z" fill="white"/>
</mask>
<g mask="url(#mask32_41_829)">
<path d="M201.6 208H202.56V207.04H201.6V208ZM201.6 241.6V242.56H202.56V241.6H201.6ZM168 208.96H201.6V207.04H168V208.96ZM200.64 208V241.6H202.56V208H200.64ZM201.6 240.64H168V242.56H201.6V240.64Z" fill="#FDBA74"/>
</g>
<path d="M177.604 216.331H181.12V223.363H188.479V216.331H191.995V233.3H188.479V226.257H181.12V233.3H177.604V216.331Z" fill="#EA580C"/>
<mask id="mask33_41_829" style="mask-type:luminance" maskUnits="userSpaceOnUse" x="201" y="73" width="35" height="35">
<path d="M201.6 73.6H235.2V107.2H201.6V73.6Z" fill="white"/>
</mask>
<g mask="url(#mask33_41_829)">
<path d="M235.2 106.24H201.6V108.16H235.2V106.24Z" fill="#FDBA74"/>
</g>
<path d="M205.703 80.2163H208.843L212.677 95.4277H212.867L216.837 80.2163H219.95L223.946 95.4413H224.109L227.956 80.2163H231.083L225.618 99.9H222.6L218.481 85.178H218.332L214.186 99.9H211.168L205.703 80.2163Z" fill="white"/>
<mask id="mask34_41_829" style="mask-type:luminance" maskUnits="userSpaceOnUse" x="201" y="107" width="35" height="34">
<path d="M201.6 107.2H235.2V140.8H201.6V107.2Z" fill="white"/>
</mask>
<g mask="url(#mask34_41_829)">
<path d="M235.2 139.84H201.6V141.76H235.2V139.84Z" fill="#FDBA74"/>
</g>
<path d="M225.419 115.531V126.559C225.419 127.777 225.126 128.852 224.541 129.781C223.962 130.711 223.142 131.438 222.08 131.961C221.017 132.477 219.791 132.734 218.4 132.734C217.001 132.734 215.775 132.477 214.72 131.961C213.666 131.438 212.845 130.711 212.259 129.781C211.681 128.852 211.392 127.777 211.392 126.559V115.531H214.908V126.266C214.908 126.906 215.052 127.484 215.341 128C215.63 128.508 216.041 128.91 216.572 129.207C217.103 129.496 217.712 129.641 218.4 129.641C219.095 129.641 219.708 129.496 220.24 129.207C220.771 128.91 221.177 128.508 221.458 128C221.748 127.484 221.892 126.906 221.892 126.266V115.531H225.419Z" fill="#F97316"/>
<mask id="mask35_41_829" style="mask-type:luminance" maskUnits="userSpaceOnUse" x="201" y="140" width="35" height="35">
<path d="M201.6 140.8H235.2V174.4H201.6V140.8Z" fill="white"/>
</mask>
<g mask="url(#mask35_41_829)">
<path d="M235.2 174.4V175.36H236.16V174.4H235.2ZM234.24 140.8V174.4H236.16V140.8H234.24ZM235.2 173.44H201.6V175.36H235.2V173.44Z" fill="#FDBA74"/>
</g>
<path d="M201.6 174.4H235.2V208H201.6V174.4Z" fill="#F97316"/>
<mask id="mask36_41_829" style="mask-type:luminance" maskUnits="userSpaceOnUse" x="201" y="174" width="35" height="34">
<path d="M201.6 174.4H235.2V208H201.6V174.4Z" fill="white"/>
</mask>
<g mask="url(#mask36_41_829)">
<path d="M235.2 208V208.96H236.16V208H235.2ZM234.24 174.4V208H236.16V174.4H234.24ZM235.2 207.04H201.6V208.96H235.2V207.04Z" fill="#F97316"/>
</g>
<path d="M205.703 181.016H208.843L212.677 196.228H212.867L216.837 181.016H219.95L223.946 196.241H224.109L227.956 181.016H231.083L225.618 200.7H222.6L218.481 185.978H218.332L214.186 200.7H211.168L205.703 181.016Z" fill="#F97316"/>
<mask id="mask37_41_829" style="mask-type:luminance" maskUnits="userSpaceOnUse" x="201" y="208" width="35" height="34">
<path d="M201.6 208H235.2V241.6H201.6V208Z" fill="white"/>
</mask>
<g mask="url(#mask37_41_829)">
<path d="M235.2 208H236.16V207.04H235.2V208ZM235.2 241.6V242.56H236.16V241.6H235.2ZM201.6 208.96H235.2V207.04H201.6V208.96ZM234.24 208V241.6H236.16V208H234.24ZM235.2 240.64H201.6V242.56H235.2V240.64Z" fill="#FDBA74"/>
</g>
<path d="M212.775 216.331H224.166V219.238H216.291V223.363H223.568V226.257H216.291V230.394H224.189V233.3H212.775V216.331Z" fill="#EA580C"/>
<path d="M201.6 241.6H235.2V275.2H201.6V241.6Z" fill="#F97316"/>
<mask id="mask38_41_829" style="mask-type:luminance" maskUnits="userSpaceOnUse" x="201" y="241" width="35" height="35">
<path d="M201.6 241.6H235.2V275.2H201.6V241.6Z" fill="white"/>
</mask>
<g mask="url(#mask38_41_829)">
<path d="M234.24 241.6V275.2H236.16V241.6H234.24Z" fill="#FDBA74"/>
</g>
<path d="M235.055 40H268.655V73.6H235.055V40Z" fill="#F97316"/>
<mask id="mask39_41_829" style="mask-type:luminance" maskUnits="userSpaceOnUse" x="235" y="40" width="34" height="34">
<path d="M235.055 40H268.655V73.6H235.055V40Z" fill="white"/>
</mask>
<g mask="url(#mask39_41_829)">
<path d="M268.655 73.6V74.56H269.615V73.6H268.655ZM235.055 73.6H234.095V74.56H235.055V73.6ZM267.695 40V73.6H269.615V40H267.695ZM268.655 72.64H235.055V74.56H268.655V72.64ZM236.015 73.6V40H234.095V73.6H236.015Z" fill="#F97316"/>
</g>
<path d="M239.158 46.6163H242.298L246.132 61.8277H246.322L250.291 46.6163H253.404L257.401 61.8413H257.564L261.411 46.6163H264.537L259.073 66.3H256.055L251.936 51.578H251.787L247.64 66.3H244.623L239.158 46.6163Z" fill="#F97316"/>
<path d="M235.055 73.6H268.655V107.2H235.055V73.6Z" fill="#F97316"/>
<mask id="mask40_41_829" style="mask-type:luminance" maskUnits="userSpaceOnUse" x="235" y="73" width="34" height="35">
<path d="M235.055 73.6H268.655V107.2H235.055V73.6Z" fill="white"/>
</mask>
<g mask="url(#mask40_41_829)">
<path d="M268.655 106.24H235.055V108.16H268.655V106.24Z" fill="#FDBA74"/>
</g>
<path d="M240.253 81.9313H244.085L246.933 93.7906H247.085L250.19 81.9313H253.519L256.636 93.8258H256.776L259.624 81.9313H263.456L258.616 98.9H255.159L251.925 87.6969H251.796L248.55 98.9H245.104L240.253 81.9313Z" fill="#F97316"/>
<mask id="mask41_41_829" style="mask-type:luminance" maskUnits="userSpaceOnUse" x="235" y="107" width="34" height="34">
<path d="M235.055 107.2H268.655V140.8H235.055V107.2Z" fill="white"/>
</mask>
<g mask="url(#mask41_41_829)">
<path d="M268.655 140.8V141.76H269.615V140.8H268.655ZM235.055 140.8H234.095V141.76H235.055V140.8ZM267.695 107.2V140.8H269.615V107.2H267.695ZM268.655 139.84H235.055V141.76H268.655V139.84ZM236.015 140.8V107.2H234.095V140.8H236.015Z" fill="#FDBA74"/>
</g>
<path d="M245.714 115.531H252.347C253.628 115.531 254.722 115.758 255.628 116.211C256.542 116.656 257.237 117.297 257.714 118.133C258.19 118.969 258.429 119.945 258.429 121.063C258.429 122.172 258.187 123.137 257.702 123.957C257.226 124.77 256.522 125.395 255.593 125.832C254.663 126.262 253.554 126.477 252.265 126.477H247.776V123.605H251.714C252.417 123.605 252.995 123.512 253.448 123.324C253.901 123.129 254.241 122.844 254.468 122.469C254.694 122.094 254.808 121.625 254.808 121.063C254.808 120.484 254.694 120 254.468 119.609C254.241 119.219 253.897 118.926 253.437 118.73C252.976 118.527 252.397 118.426 251.702 118.426H249.229V132.5H245.714V115.531ZM259.038 132.5H255.124L251.011 124.789H254.819L259.038 132.5Z" fill="#F97316"/>
<path d="M235.055 140.8H268.655V174.4H235.055V140.8Z" fill="#F97316"/>
<mask id="mask42_41_829" style="mask-type:luminance" maskUnits="userSpaceOnUse" x="235" y="140" width="34" height="35">
<path d="M235.055 140.8H268.655V174.4H235.055V140.8Z" fill="white"/>
</mask>
<g mask="url(#mask42_41_829)">
<path d="M268.655 174.4V175.36H269.615V174.4H268.655ZM267.695 140.8V174.4H269.615V140.8H267.695ZM268.655 173.44H235.055V175.36H268.655V173.44Z" fill="#F97316"/>
</g>
<path d="M235.055 174.4H268.655V208H235.055V174.4Z" fill="#F97316"/>
<mask id="mask43_41_829" style="mask-type:luminance" maskUnits="userSpaceOnUse" x="235" y="174" width="34" height="34">
<path d="M235.055 174.4H268.655V208H235.055V174.4Z" fill="white"/>
</mask>
<g mask="url(#mask43_41_829)">
<path d="M268.655 208V208.96H269.615V208H268.655ZM267.695 174.4V208H269.615V174.4H267.695ZM268.655 207.04H235.055V208.96H268.655V207.04Z" fill="#F97316"/>
</g>
<path d="M239.158 181.016H242.298L246.132 196.228H246.322L250.291 181.016H253.404L257.401 196.241H257.564L261.411 181.016H264.537L259.073 200.7H256.055L251.936 185.978H251.787L247.64 200.7H244.623L239.158 181.016Z" fill="#F97316"/>
<mask id="mask44_41_829" style="mask-type:luminance" maskUnits="userSpaceOnUse" x="235" y="208" width="34" height="34">
<path d="M235.055 208H268.655V241.6H235.055V208Z" fill="white"/>
</mask>
<g mask="url(#mask44_41_829)">
<path d="M268.655 208H269.615V207.04H268.655V208ZM268.655 241.6V242.56H269.615V241.6H268.655ZM235.055 208.96H268.655V207.04H235.055V208.96ZM267.695 208V241.6H269.615V208H267.695ZM268.655 240.64H235.055V242.56H268.655V240.64Z" fill="#FDBA74"/>
</g>
<path d="M245.714 216.331H252.347C253.628 216.331 254.722 216.558 255.628 217.011C256.542 217.456 257.237 218.097 257.714 218.933C258.19 219.769 258.429 220.745 258.429 221.863C258.429 222.972 258.187 223.937 257.702 224.757C257.226 225.57 256.522 226.195 255.593 226.632C254.663 227.062 253.554 227.277 252.265 227.277H247.776V224.405H251.714C252.417 224.405 252.995 224.312 253.448 224.124C253.901 223.929 254.241 223.644 254.468 223.269C254.694 222.894 254.808 222.425 254.808 221.863C254.808 221.284 254.694 220.8 254.468 220.409C254.241 220.019 253.897 219.726 253.437 219.53C252.976 219.327 252.397 219.226 251.702 219.226H249.229V233.3H245.714V216.331ZM259.038 233.3H255.124L251.011 225.589H254.819L259.038 233.3Z" fill="#EA580C"/>
<mask id="mask45_41_829" style="mask-type:luminance" maskUnits="userSpaceOnUse" x="235" y="241" width="34" height="35">
<path d="M235.055 241.6H268.655V275.2H235.055V241.6Z" fill="white"/>
</mask>
<g mask="url(#mask45_41_829)">
<path d="M268.655 275.2V276.16H269.615V275.2H268.655ZM267.695 241.6V275.2H269.615V241.6H267.695ZM268.655 274.24H235.055V276.16H268.655V274.24Z" fill="#FDBA74"/>
</g>
<path d="M253.331 261.826H250.343L250.026 249.931H253.659L253.331 261.826ZM251.843 267.111C251.491 267.111 251.163 267.021 250.858 266.841C250.554 266.654 250.312 266.412 250.132 266.115C249.96 265.81 249.874 265.482 249.874 265.13C249.874 264.787 249.96 264.466 250.132 264.17C250.312 263.865 250.554 263.627 250.858 263.455C251.163 263.283 251.491 263.197 251.843 263.197C252.187 263.197 252.507 263.283 252.804 263.455C253.108 263.627 253.351 263.865 253.53 264.17C253.718 264.466 253.812 264.787 253.812 265.13C253.812 265.482 253.718 265.81 253.53 266.115C253.351 266.412 253.108 266.654 252.804 266.841C252.507 267.021 252.187 267.111 251.843 267.111Z" fill="#EA580C"/>
</svg>
