<svg width="24" height="28" viewBox="0 0 24 28" fill="none" xmlns="http://www.w3.org/2000/svg">
<g id="icon/pin" filter="url(#filter0_d_106_2757)">
<path id="Vector" fill-rule="evenodd" clip-rule="evenodd" d="M4 8.63251C4 1.52338 8 0 12 0C16 0 20 1.52338 20 8.63251C20 14.2157 15.0657 18.2329 12.9475 19.7002C12.3704 20.0999 11.6296 20.0999 11.0525 19.7002C8.93425 18.2329 4 14.2157 4 8.63251ZM12 11.1715C13.6569 11.1715 15 9.80739 15 8.12471C15 6.44203 13.6569 5.07794 12 5.07794C10.3432 5.07794 9 6.44203 9 8.12471C9 9.80739 10.3432 11.1715 12 11.1715Z" fill="#FEC8C1"/>
</g>
<defs>
<filter id="filter0_d_106_2757" x="-2" y="0" width="28" height="28" filterUnits="userSpaceOnUse" color-interpolation-filters="sRGB">
<feFlood flood-opacity="0" result="BackgroundImageFix"/>
<feColorMatrix in="SourceAlpha" type="matrix" values="0 0 0 0 0 0 0 0 0 0 0 0 0 0 0 0 0 0 127 0" result="hardAlpha"/>
<feOffset dy="4"/>
<feGaussianBlur stdDeviation="2"/>
<feComposite in2="hardAlpha" operator="out"/>
<feColorMatrix type="matrix" values="0 0 0 0 0 0 0 0 0 0 0 0 0 0 0 0 0 0 0.25 0"/>
<feBlend mode="normal" in2="BackgroundImageFix" result="effect1_dropShadow_106_2757"/>
<feBlend mode="normal" in="SourceGraphic" in2="effect1_dropShadow_106_2757" result="shape"/>
</filter>
</defs>
</svg>
