<svg width="20" height="20" viewBox="0 0 20 20" fill="none" xmlns="http://www.w3.org/2000/svg">
<g id="bars">
<path id="Vector" fill-rule="evenodd" clip-rule="evenodd" d="M0 17.1116C4.44416e-08 16.6207 0.407014 16.2227 0.909091 16.2227H19.0909C19.593 16.2227 20 16.6207 20 17.1116C20 17.6025 19.593 18.0005 19.0909 18.0005H0.909091C0.407014 18.0005 -4.44416e-08 17.6025 0 17.1116Z" fill="#57643A"/>
<path id="Vector_2" fill-rule="evenodd" clip-rule="evenodd" d="M0 10.0002C4.44416e-08 9.5093 0.407014 9.11133 0.909091 9.11133H19.0909C19.593 9.11133 20 9.5093 20 10.0002C20 10.4911 19.593 10.8891 19.0909 10.8891H0.909091C0.407014 10.8891 -4.44416e-08 10.4911 0 10.0002Z" fill="#57643A"/>
<path id="Vector_3" fill-rule="evenodd" clip-rule="evenodd" d="M0 2.88889C4.44416e-08 2.39797 0.407014 2 0.909091 2H19.0909C19.593 2 20 2.39797 20 2.88889C20 3.37981 19.593 3.77778 19.0909 3.77778H0.909091C0.407014 3.77778 -4.44416e-08 3.37981 0 2.88889Z" fill="#57643A"/>
</g>
</svg>
