<svg width="23" height="22" viewBox="0 0 23 22" fill="none" xmlns="http://www.w3.org/2000/svg">
<g id="progress/now">
<path id="Vector" d="M11.5 20.625C6.1925 20.625 1.875 16.3075 1.875 11C1.875 5.6925 6.1925 1.375 11.5 1.375C16.8075 1.375 21.125 5.6925 21.125 11C21.125 16.3075 16.8075 20.625 11.5 20.625ZM11.5 2.75C6.94875 2.75 3.25 6.44875 3.25 11C3.25 15.5512 6.94875 19.25 11.5 19.25C16.0512 19.25 19.75 15.5512 19.75 11C19.75 6.44875 16.0512 2.75 11.5 2.75Z" fill="#B6C99B"/>
<path id="Vector_2" d="M11.5 16C14.2614 16 16.5 13.7614 16.5 11C16.5 8.23858 14.2614 6 11.5 6C8.73858 6 6.5 8.23858 6.5 11C6.5 13.7614 8.73858 16 11.5 16Z" fill="#B6C99B"/>
</g>
</svg>
