<svg width="14" height="14" viewBox="0 0 14 14" fill="none" xmlns="http://www.w3.org/2000/svg">
<path d="M10.3515 2.15414L10.982 2.71884C11.3042 3.00744 11.582 3.25611 11.7774 3.485C11.9869 3.73031 12.1503 4.0068 12.1689 4.35712C12.1874 4.70745 12.0541 4.99948 11.8716 5.26533C11.7014 5.51339 11.4515 5.78971 11.1614 6.11041L6.14757 11.6546C5.8741 11.9575 5.65781 12.197 5.3712 12.3467C5.0846 12.4962 4.76357 12.5371 4.35768 12.5887L3.14678 12.7438C2.82431 12.7852 2.53272 12.8225 2.2951 12.8196C2.03592 12.8164 1.75373 12.7661 1.51688 12.554C1.28002 12.3418 1.20006 12.0678 1.16965 11.8117C1.14176 11.5768 1.1485 11.2843 1.15596 10.9608L1.18379 9.74629C1.19277 9.33919 1.19988 9.01718 1.31926 8.71785C1.43864 8.41847 1.65535 8.17927 1.92935 7.87682L6.94327 2.33271C7.23328 2.01199 7.48314 1.73565 7.71318 1.54114C7.95972 1.33268 8.23753 1.17006 8.58957 1.15161C8.94161 1.13317 9.23509 1.26585 9.50224 1.4474C9.75151 1.61679 10.0292 1.8655 10.3515 2.15414Z" fill="#B6C99B"/>
<path d="M7.7957 11.8765C7.52563 11.8765 7.30664 12.0944 7.30664 12.3632C7.30664 12.632 7.52563 12.8499 7.7957 12.8499H12.3606C12.6307 12.8499 12.8497 12.632 12.8497 12.3632C12.8497 12.0944 12.6307 11.8765 12.3606 11.8765H7.7957Z" fill="#B6C99B"/>
</svg>
