<svg width="12" height="12" viewBox="0 0 12 12" fill="none" xmlns="http://www.w3.org/2000/svg">
<g id="icon/pin">
<path id="Vector" fill-rule="evenodd" clip-rule="evenodd" d="M1.16211 5.20551C1.16211 1.07544 3.48592 0.19043 5.80973 0.19043C8.13354 0.19043 10.4573 1.07544 10.4573 5.20551C10.4573 8.44907 7.59075 10.7829 6.36018 11.6353C6.02491 11.8675 5.59452 11.8675 5.25926 11.6353C4.02867 10.7829 1.16211 8.44907 1.16211 5.20551ZM5.80973 6.68054C6.77231 6.68054 7.55259 5.88806 7.55259 4.9105C7.55259 3.93294 6.77231 3.14047 5.80973 3.14047C4.84718 3.14047 4.06687 3.93294 4.06687 4.9105C4.06687 5.88806 4.84718 6.68054 5.80973 6.68054Z" fill="#B6C99B"/>
</g>
</svg>
