<svg width="13" height="13" viewBox="0 0 13 13" fill="none" xmlns="http://www.w3.org/2000/svg">
<g id="record-vinyl">
<path id="Vector" fill-rule="evenodd" clip-rule="evenodd" d="M6.24991 6.57187C6.55459 6.57187 6.8016 6.32486 6.8016 6.02018C6.8016 5.7155 6.55459 5.46851 6.24991 5.46851C5.94523 5.46851 5.69824 5.7155 5.69824 6.02018C5.69824 6.32486 5.94523 6.57187 6.24991 6.57187Z" fill="#B6C99B"/>
<path id="Vector_2" fill-rule="evenodd" clip-rule="evenodd" d="M0.831055 6.02024C0.831055 3.02786 3.25686 0.602051 6.24924 0.602051C9.24164 0.602051 11.6674 3.02786 11.6674 6.02024C11.6674 9.01264 9.24164 11.4384 6.24924 11.4384C3.25686 11.4384 0.831055 9.01264 0.831055 6.02024ZM6.16047 2.68042C6.20078 2.92739 6.03325 3.16027 5.78628 3.20058C5.21614 3.29364 4.66927 3.55966 4.22908 3.99985C3.78889 4.44005 3.52286 4.98692 3.4298 5.55705C3.38949 5.80402 3.15661 5.97155 2.90964 5.93124C2.66268 5.89093 2.49515 5.65805 2.53546 5.41109C2.65809 4.65975 3.00944 3.93797 3.58831 3.35909C4.16719 2.78021 4.88898 2.42886 5.64031 2.30623C5.88727 2.26593 6.12016 2.43345 6.16047 2.68042ZM9.58895 6.10897C9.34194 6.06864 9.10908 6.23618 9.0688 6.48313C8.97573 7.0533 8.7097 7.60018 8.2695 8.04038C7.8293 8.48051 7.28243 8.74655 6.71231 8.83962C6.4653 8.87995 6.29782 9.11281 6.3381 9.35976C6.37843 9.60677 6.61129 9.77425 6.85824 9.73398C7.60962 9.61135 8.33139 9.26001 8.91029 8.68111C9.48913 8.10226 9.84047 7.38044 9.9631 6.62912C10.0034 6.38217 9.8359 6.14925 9.58895 6.10897ZM6.24923 3.9121C5.08495 3.9121 4.14111 4.85594 4.14111 6.02022C4.14111 7.18448 5.08495 8.12833 6.24923 8.12833C7.41349 8.12833 8.35733 7.18448 8.35733 6.02022C8.35733 4.85594 7.41349 3.9121 6.24923 3.9121Z" fill="#B6C99B"/>
<path id="Vector_3" d="M6.24991 6.57187C6.55459 6.57187 6.8016 6.32486 6.8016 6.02018C6.8016 5.7155 6.55459 5.46851 6.24991 5.46851C5.94523 5.46851 5.69824 5.7155 5.69824 6.02018C5.69824 6.32486 5.94523 6.57187 6.24991 6.57187Z" fill="#B6C99B"/>
</g>
</svg>
