<svg width="22" height="21" viewBox="0 0 22 21" fill="none" xmlns="http://www.w3.org/2000/svg">
<g id="share-nodes">
<path id="Vector" d="M19.9664 4.9873C19.9664 2.81268 18.2036 1.0498 16.0289 1.0498C13.8543 1.0498 12.0914 2.81268 12.0914 4.9873C12.0914 5.15037 12.1013 5.31112 12.1206 5.46899L7.99803 7.94252C7.27584 7.09777 6.20241 6.5623 5.00391 6.5623C2.82928 6.5623 1.06641 8.32518 1.06641 10.4998C1.06641 12.6745 2.82928 14.4373 5.00391 14.4373C6.20241 14.4373 7.27584 13.9018 7.99803 13.0571L12.1206 15.5307C12.1013 15.6885 12.0914 15.8492 12.0914 16.0123C12.0914 18.187 13.8543 19.9498 16.0289 19.9498C18.2036 19.9498 19.9664 18.187 19.9664 16.0123C19.9664 13.8376 18.2036 12.0748 16.0289 12.0748C14.5872 12.0748 13.3264 12.8497 12.6403 14.0058L8.7619 11.6786C8.87853 11.3064 8.94141 10.9105 8.94141 10.4998C8.94141 10.0891 8.87853 9.69315 8.7619 9.32095L12.6403 6.99389C13.3264 8.14991 14.5872 8.9248 16.0289 8.9248C18.2036 8.9248 19.9664 7.16193 19.9664 4.9873Z" fill="#57643A"/>
</g>
</svg>
