<svg width="12" height="11" viewBox="0 0 12 11" fill="none" xmlns="http://www.w3.org/2000/svg">
<g id="user">
<path id="Vector" d="M3.11719 2.36709C3.11719 1.00913 4.34031 0 5.72969 0C7.11904 0 8.34219 1.00913 8.34219 2.36709C8.34219 3.72505 7.11904 4.73418 5.72969 4.73418C4.34031 4.73418 3.11719 3.72505 3.11719 2.36709Z" fill="#B6C99B"/>
<path id="Vector_2" d="M2.31017 10.9932C2.36995 10.9999 2.44098 10.9999 2.58306 10.9999H8.87712C9.01919 10.9999 9.09019 10.9999 9.14998 10.9932C9.66258 10.9363 10.0673 10.5264 10.1235 10.0073C10.1301 9.94685 10.1301 9.87491 10.1301 9.73103V9.45047C10.1301 8.29866 9.53817 7.2299 8.56764 6.6293C6.82568 5.5513 4.63447 5.5513 2.89253 6.6293C1.922 7.2299 1.33008 8.29866 1.33008 9.45047V9.73103C1.33008 9.87491 1.33008 9.94685 1.33663 10.0073C1.39284 10.5264 1.79758 10.9363 2.31017 10.9932Z" fill="#B6C99B"/>
</g>
</svg>
