<svg width="13" height="13" viewBox="0 0 13 13" fill="none" xmlns="http://www.w3.org/2000/svg">
<g id="link">
<path id="Vector" d="M11.0253 1.87856C10.6855 1.53856 10.4539 1.3068 10.2122 1.14534C9.2236 0.484755 7.93433 0.484755 6.94574 1.14534C6.70407 1.3068 6.47243 1.53856 6.13261 1.87856L4.83725 3.17393C4.60764 3.40354 4.60764 3.77581 4.83725 4.00542C5.06686 4.23504 5.43913 4.23504 5.66874 4.00542L6.91597 2.75818C7.32229 2.35189 7.46672 2.21148 7.59899 2.12307C8.19218 1.72672 8.96575 1.72672 9.55894 2.12307C9.69121 2.21148 9.83564 2.35189 10.242 2.75818C10.6482 3.16447 10.7887 3.30891 10.8771 3.44122C11.2734 4.0344 11.2734 4.80793 10.8771 5.40112C10.7887 5.53343 10.6482 5.67787 10.242 6.08416L8.99474 7.33138C8.76509 7.56103 8.76509 7.93328 8.99474 8.16286C9.22432 8.39251 9.59657 8.39251 9.82622 8.16286L11.1216 6.86754C11.4616 6.52772 11.6933 6.29607 11.8548 6.05442C12.5154 5.06578 12.5154 3.77656 11.8548 2.78792C11.6933 2.54627 11.4616 2.31464 11.1216 1.9748L11.0253 1.87856Z" fill="#474747"/>
<path id="Vector_2" d="M4.00591 5.6685C4.23552 5.43889 4.23552 5.06662 4.00591 4.837C3.7763 4.60739 3.40402 4.60739 3.17442 4.837L1.87905 6.13236C1.53904 6.47219 1.30729 6.70383 1.14583 6.9455C0.485243 7.93409 0.485243 9.22336 1.14583 10.2119C1.30729 10.4536 1.53904 10.6853 1.87904 11.0251L1.97529 11.1214C2.31512 11.4613 2.54676 11.6931 2.78841 11.8546C3.77705 12.5152 5.06627 12.5152 6.05491 11.8546C6.29656 11.6931 6.52821 11.4613 6.86803 11.1214L8.16335 9.82598C8.39299 9.59633 8.39299 9.22408 8.16335 8.99449C7.93377 8.76485 7.56151 8.76485 7.33187 8.99449L6.08464 10.2417C5.67836 10.648 5.53392 10.7884 5.4016 10.8768C4.80842 11.2732 4.03489 11.2732 3.4417 10.8768C3.3094 10.7884 3.16495 10.648 2.75867 10.2417C2.35238 9.8354 2.21197 9.69097 2.12356 9.5587C1.72721 8.96551 1.72721 8.19194 2.12356 7.59875C2.21197 7.46648 2.35238 7.32205 2.75867 6.91573L4.00591 5.6685Z" fill="#474747"/>
<path id="Vector_3" d="M8.16324 5.6685C8.39282 5.43889 8.39282 5.06661 8.16324 4.837C7.9336 4.60739 7.56134 4.60739 7.33169 4.837L4.83725 7.33146C4.60764 7.5611 4.60764 7.93336 4.83725 8.163C5.06685 8.39258 5.43913 8.39258 5.66874 8.163L8.16324 5.6685Z" fill="#474747"/>
</g>
</svg>
