<svg width="12" height="18" viewBox="0 0 12 18" fill="none" xmlns="http://www.w3.org/2000/svg">
<g id="&#236;&#157;&#180;&#236;&#160;&#132;">
<path id="Vector" d="M11.2314 16.1802C11.3166 16.252 11.3841 16.3372 11.4302 16.431C11.4763 16.5248 11.5 16.6254 11.5 16.7269C11.5 16.8284 11.4763 16.9289 11.4302 17.0227C11.3841 17.1165 11.3166 17.2018 11.2314 17.2736C11.1462 17.3454 11.0451 17.4023 10.9339 17.4411C10.8226 17.48 10.7034 17.5 10.5829 17.5C10.4625 17.5 10.3432 17.48 10.232 17.4411C10.1207 17.4023 10.0196 17.3454 9.93446 17.2736L0.768816 9.54668C0.683597 9.47491 0.615993 9.3897 0.569867 9.29589C0.523742 9.20209 0.5 9.10154 0.5 9C0.5 8.89846 0.523742 8.79791 0.569867 8.70411C0.615993 8.6103 0.683597 8.52508 0.768816 8.45332L9.93446 0.726441C10.1064 0.581453 10.3397 0.5 10.5829 0.5C10.8261 0.5 11.0594 0.581453 11.2314 0.726441C11.4034 0.871429 11.5 1.06807 11.5 1.27312C11.5 1.47816 11.4034 1.67481 11.2314 1.81979L2.71308 9L11.2314 16.1802Z" fill="#B6C99B"/>
</g>
</svg>
