<svg width="16" height="15" viewBox="0 0 16 15" fill="none" xmlns="http://www.w3.org/2000/svg">
<path fill-rule="evenodd" clip-rule="evenodd" d="M8 0C3.85787 0 0.5 3.35787 0.5 7.5C0.5 11.6422 3.85787 15 8 15C12.1422 15 15.5 11.6422 15.5 7.5C15.5 3.35787 12.1422 0 8 0ZM9.08083 5.52769C9.327 5.28153 9.72608 5.28153 9.97225 5.52769C10.2184 5.77387 10.2184 6.17298 9.97225 6.41915L8.89142 7.5L9.97225 8.58083C10.2184 8.827 10.2184 9.22617 9.97225 9.47233C9.72608 9.7185 9.327 9.7185 9.08083 9.47233L7.99996 8.3915L6.9191 9.47233C6.67293 9.7185 6.27381 9.7185 6.02764 9.47233C5.78148 9.22617 5.78148 8.827 6.02764 8.58083L7.10851 7.5L6.02764 6.41915C5.78148 6.17298 5.78148 5.77387 6.02764 5.52769C6.27381 5.28153 6.67293 5.28153 6.9191 5.52769L7.99996 6.60856L9.08083 5.52769Z" fill="#92A56E"/>
</svg>
